Coordinates
version=1
nRows=24
nColumns=38
inDegrees=no

Units are S.I. units (second, meters, Newtons, ...)
If the header above contains a line with 'inDegrees', this indicates whether rotational values are in degrees (yes) or radians (no).

endheader
time	pelvis_tilt	pelvis_list	pelvis_rotation	pelvis_tx	pelvis_ty	pelvis_tz	hip_flexion_r	hip_adduction_r	hip_rotation_r	knee_angle_r	ankle_angle_r	subtalar_angle_r	mtp_angle_r	hip_flexion_l	hip_adduction_l	hip_rotation_l	knee_angle_l	ankle_angle_l	subtalar_angle_l	mtp_angle_l	lumbar_extension	lumbar_bending	lumbar_rotation	arm_flex_r	arm_add_r	arm_rot_r	elbow_flex_r	pro_sup_r	wrist_flex_r	wrist_dev_r	arm_flex_l	arm_add_l	arm_rot_l	elbow_flex_l	pro_sup_l	wrist_flex_l	wrist_dev_l
1.15	0.0139685	0.02362	-0.00234675	0.960865	1.02883	-0.61597	-0.414075	-0.0647878	-0.299457	-1.258	-0.272627	0.0777062	0.000156421	0.586546	0.0790073	-0.121424	-0.313742	0.123979	0.0199807	0.000309144	-0.282782	-0.0995653	0.188265	-0.0571659	-0.432159	0.123124	2.442	2.09309	0.00322805	-0.0158239	-0.623094	-0.417881	0.0068843	2.14305	1.88002	0.0600457	-0.00212831
1.15833	0.0246991	0.0343919	0.00987006	0.960109	1.02482	-0.617186	-0.390777	-0.0796334	-0.309372	-1.37937	-0.257884	0.0777062	0.000156421	0.570946	0.0937402	-0.132701	-0.346497	0.105945	0.0199807	0.000309144	-0.301578	-0.107917	0.166951	-0.0924639	-0.420085	0.112437	2.40222	2.09132	0.00322805	-0.0158239	-0.574086	-0.433398	0.0254802	2.12706	1.86981	0.0600457	-0.00212831
1.16667	0.0362349	0.0480635	0.0228271	0.958887	1.02043	-0.618528	-0.366181	-0.0966736	-0.319481	-1.49706	-0.241464	0.0777062	0.000156421	0.558647	0.112059	-0.140681	-0.397747	0.0910265	0.0199807	0.000309144	-0.323049	-0.118389	0.141008	-0.124019	-0.406238	0.100936	2.35536	2.09005	0.00322805	-0.0158239	-0.52236	-0.44899	0.044887	2.10888	1.85801	0.0600457	-0.00212831
1.175	0.0485099	0.0641588	0.036026	0.957203	1.01587	-0.619904	-0.339738	-0.115541	-0.328954	-1.61018	-0.222769	0.0777062	0.000156421	0.548759	0.133549	-0.144114	-0.464277	0.0832857	0.0199807	0.000309144	-0.347074	-0.13067	0.110906	-0.151336	-0.39059	0.0886971	2.30129	2.09201	0.00322805	-0.0158239	-0.468235	-0.464403	0.0649356	2.08857	1.84582	0.0600457	-0.00212831
1.18333	0.0612905	0.0820916	0.0488476	0.955079	1.01144	-0.621203	-0.310433	-0.135766	-0.336624	-1.71795	-0.201694	0.0777062	0.000156421	0.539999	0.157506	-0.142678	-0.541692	0.086159	0.0199807	0.000309144	-0.373203	-0.144379	0.0774099	-0.174283	-0.373218	0.0757045	2.24017	2.09952	0.00322805	-0.0158239	-0.412011	-0.479341	0.0854598	2.0663	1.83445	0.0600457	-0.00212831
1.19167	0.0741508	0.101161	0.060645	0.952552	1.00743	-0.622318	-0.276903	-0.156711	-0.34113	-1.81958	-0.178596	0.0777062	0.000156421	0.530784	0.182978	-0.136896	-0.624639	0.101656	0.0199807	0.000309144	-0.400648	-0.159035	0.0415105	-0.193088	-0.354374	0.0619579	2.17265	2.11372	0.00322805	-0.0158239	-0.354087	-0.493429	0.106199	2.04251	1.82478	0.0600457	-0.00212831
1.2	0.0865042	0.120544	0.0708488	0.949675	1.00395	-0.623179	-0.237624	-0.177521	-0.341119	-1.91417	-0.154157	0.0777062	0.000156421	0.519465	0.208803	-0.127837	-0.707376	0.129948	0.0199807	0.000309144	-0.428338	-0.174001	0.00433238	-0.208321	-0.33454	0.0475858	2.10003	2.13406	0.00322805	-0.0158239	-0.29507	-0.50619	0.126698	2.01801	1.81725	0.0600457	-0.00212831
1.20833	0.0976652	0.139272	0.0790677	0.946509	1.00096	-0.623767	-0.191171	-0.197127	-0.335508	-2.00065	-0.12924	0.0777062	0.000156421	0.504636	0.233676	-0.116724	-0.784574	0.16947	0.0199807	0.000309144	-0.455014	-0.188437	-0.032967	-0.220865	-0.31446	0.0329241	2.02443	2.15818	0.00322805	-0.0158239	-0.235852	-0.517056	0.146233	1.99403	1.81178	0.0600457	-0.00212831
1.21667	0.106926	0.156288	0.0851564	0.943123	0.99837	-0.624118	-0.136475	-0.214338	-0.323739	-2.07783	-0.104756	0.0777062	0.000156421	0.485401	0.256262	-0.104562	-0.852043	0.217431	0.0199807	0.000309144	-0.479349	-0.201297	-0.0693164	-0.23186	-0.295113	0.018532	1.94873	2.18225	0.00322805	-0.0158239	-0.177623	-0.525409	0.163809	1.9722	1.80798	0.0600457	-0.00212831
1.225	0.11368	0.170529	0.0892756	0.939602	0.996134	-0.624321	-0.0730344	-0.228022	-0.305984	-2.14442	-0.0815817	0.0777062	0.000156421	0.461508	0.275332	-0.0919439	-0.907149	0.270481	0.0199807	0.000309144	-0.500063	-0.211424	-0.103852	-0.242625	-0.277606	0.00512504	1.87635	2.2017	0.00322805	-0.0158239	-0.121802	-0.530662	0.178237	1.95435	1.80533	0.0600457	-0.00212831
1.23333	0.117459	0.181063	0.0918762	0.936062	0.994265	-0.624496	-0.00105852	-0.237329	-0.283223	-2.19918	-0.060495	0.0777062	0.000156421	0.433273	0.289881	-0.0790194	-0.948829	0.325284	0.0199807	0.000309144	-0.516051	-0.217713	-0.136016	-0.254541	-0.263014	-0.00657437	1.8109	2.21229	0.00322805	-0.0158239	-0.0698893	-0.532346	0.18831	1.94228	1.80347	0.0600457	-0.00212831
1.24167	0.117986	0.187238	0.0936253	0.932646	0.992796	-0.624775	0.0784773	-0.241868	-0.257174	-2.24099	-0.0421115	0.0777062	0.000156421	0.401359	0.299201	-0.0656119	-0.977266	0.378862	0.0199807	0.000309144	-0.526491	-0.21928	-0.16559	-0.26893	-0.252173	-0.0160453	1.75566	2.21121	0.00322805	-0.0158239	-0.0232659	-0.530195	0.193037	1.93747	1.80234	0.0600457	-0.00212831
1.25	0.115217	0.188743	0.0952818	0.929507	0.991756	-0.62527	0.16387	-0.241777	-0.230084	-2.26901	-0.026803	0.0777062	0.000156421	0.366469	0.302881	-0.0513974	-0.993386	0.428694	0.0199807	0.000309144	-0.53093	-0.215596	-0.192645	-0.286936	-0.245513	-0.0231822	1.71313	2.19808	0.00322805	-0.0158239	0.0169996	-0.524192	0.191877	1.94081	1.80224	0.0600457	-0.00212831
1.25833	0.109392	0.185598	0.097554	0.9268	0.991189	-0.626047	0.252795	-0.237663	-0.204441	-2.28268	-0.0146209	0.0777062	0.000156421	0.329072	0.300754	-0.0360843	-0.998339	0.472638	0.0199807	0.000309144	-0.529328	-0.206532	-0.217422	-0.309435	-0.242962	-0.0284268	1.68471	2.17523	0.00322805	-0.0158239	0.0502919	-0.514564	0.1849	1.95245	1.8037	0.0600457	-0.00212831
1.26667	0.101029	0.178063	0.100965	0.924672	0.991155	-0.627112	0.342496	-0.230428	-0.182651	-2.28183	-0.00526487	0.0777062	0.000156421	0.289225	0.292824	-0.019572	-0.993103	0.508756	0.0199807	0.000309144	-0.522056	-0.192313	-0.240186	-0.33697	-0.243971	-0.0327628	1.67052	2.14739	0.00322805	-0.0158239	0.076496	-0.501733	0.172836	1.97184	1.8072	0.0600457	-0.00212831
1.275	0.090892	0.166544	0.105753	0.923253	0.991735	-0.628418	0.430035	-0.221034	-0.16674	-2.26663	0.00187055	0.0777062	0.000156421	0.246556	0.279198	-0.00208317	-0.978251	0.535134	0.0199807	0.000309144	-0.509839	-0.173421	-0.261101	-0.369722	-0.247636	-0.0375444	1.6695	2.12053	0.00322805	-0.0158239	0.0959492	-0.486242	0.156993	1.99783	1.81294	0.0600457	-0.00212831
1.28333	0.0798926	0.151497	0.111818	0.922651	0.993009	-0.629888	0.512599	-0.210295	-0.158116	-2.23761	0.00756968	0.0777062	0.000156421	0.200404	0.260068	0.0157362	-0.9539	0.549766	0.0199807	0.000309144	-0.493641	-0.150508	-0.280153	-0.407517	-0.252888	-0.0441929	1.67967	2.10011	0.00322805	-0.0158239	0.109321	-0.468682	0.139075	2.02889	1.82067	0.0600457	-0.00212831
1.29167	0.0689362	0.133388	0.118731	0.922936	0.995039	-0.631434	0.587804	-0.198732	-0.1574	-2.19553	0.0126319	0.0777062	0.000156421	0.150049	0.235745	0.0327723	-0.919818	0.550552	0.0199807	0.000309144	-0.474529	-0.124323	-0.297139	-0.449865	-0.258692	-0.0538876	1.6985	2.08958	0.00322805	-0.0158239	0.117467	-0.449635	0.12095	2.06336	1.82962	0.0600457	-0.00212831
1.3	0.0587708	0.11269	0.125791	0.924122	0.997847	-0.632973	0.65393	-0.186521	-0.164369	-2.14134	0.0177199	0.0777062	0.000156421	0.0949894	0.206737	0.0474871	-0.875659	0.535438	0.0199807	0.000309144	-0.45352	-0.0956705	-0.311719	-0.49603	-0.264197	-0.0673448	1.7233	2.08964	0.00322805	-0.0158239	0.121283	-0.429645	0.104415	2.09969	1.83873	0.0600457	-0.00212831
1.30833	0.049843	0.089898	0.132143	0.926177	1.00138	-0.63443	0.710058	-0.173506	-0.177985	-2.07605	0.0232629	0.0777062	0.000156421	0.035182	0.173829	0.0580695	-0.821309	0.50271	0.0199807	0.000309144	-0.431458	-0.0653918	-0.323515	-0.545119	-0.268823	-0.084732	1.75165	2.09832	0.00322805	-0.0158239	0.121589	-0.409205	0.0909884	2.13654	1.84681	0.0600457	-0.00212831
1.31667	0.0422323	0.0655723	0.136927	0.929028	1.00552	-0.635745	0.756067	-0.159286	-0.196539	-2.0006	0.0294233	0.0777062	0.000156421	-0.0287818	0.138124	0.0626933	-0.757257	0.451408	0.0199807	0.000309144	-0.408924	-0.0343348	-0.332235	-0.596145	-0.272283	-0.105717	1.78152	2.11181	0.00322805	-0.0158239	0.119056	-0.388758	0.0817516	2.17291	1.85284	0.0600457	-0.00212831
1.325	0.0356763	0.040376	0.139428	0.932563	1.01008	-0.636863	0.792499	-0.143358	-0.217845	-1.91577	0.0361202	0.0777062	0.000156421	-0.0956296	0.101036	0.0598309	-0.684911	0.381778	0.0199807	0.000309144	-0.386212	-0.00335288	-0.337789	-0.648088	-0.274542	-0.129612	1.81147	2.12575	0.00322805	-0.0158239	0.114166	-0.368713	0.0772613	2.20812	1.85622	0.0600457	-0.00212831
1.33333	0.0296778	0.0151157	0.139196	0.936621	1.01486	-0.637733	0.820304	-0.125325	-0.23949	-1.82211	0.0430825	0.0777062	0.000156421	-0.163511	0.0642323	0.0485598	-0.606768	0.295694	0.0199807	0.000309144	-0.3634	0.0266738	-0.340378	-0.699917	-0.275749	-0.155564	1.84057	2.13649	0.00322805	-0.0158239	0.107231	-0.349447	0.0775422	2.24175	1.85689	0.0600457	-0.00212831
1.34167	0.0236428	-0.00924768	0.136116	0.940998	1.01965	-0.638311	0.840565	-0.105109	-0.259097	-1.71996	0.0499147	0.0777062	0.000156421	-0.23022	0.0295307	0.0287868	-0.526353	0.1969	0.0199807	0.000309144	-0.340462	0.0547916	-0.340534	-0.750596	-0.276159	-0.182699	1.86832	2.14187	0.00322805	-0.0158239	0.0984288	-0.331324	0.0821587	2.27357	1.85529	0.0600457	-0.00212831
